<svg width="53" height="70" viewBox="0 0 53 70" fill="none" xmlns="http://www.w3.org/2000/svg">
<path d="M49.8193 23.6167C53.7948 22.0126 54.1205 16.5099 50.3619 14.448L25.1674 0.626794C22.975 -0.575955 20.2333 -0.00499505 18.7032 1.97299L1.06304 24.7772C-0.813259 27.2027 -0.130249 30.725 2.51667 32.2734L6.0697 34.352C8.1119 35.5466 9.05954 37.9925 8.35533 40.2513L1.35758 62.6965C-0.184942 67.6441 5.79921 71.4561 9.63112 67.9669L36.7592 43.2647C38.8635 41.3485 38.5056 37.9412 36.049 36.5041C33.0241 34.7345 33.3507 30.262 36.6006 28.9506L49.8193 23.6167Z" fill="url(#paint0_linear_10_59)"/>
<defs>
<linearGradient id="paint0_linear_10_59" x1="53.913" y1="16.183" x2="16.3942" y2="-1.73582" gradientUnits="userSpaceOnUse">
<stop stop-color="#FF6432"/>
<stop offset="1" stop-color="#FFA228"/>
</linearGradient>
</defs>
</svg>
